<?xml version="1.0" encoding="UTF-8"?>
<svg xmlns="http://www.w3.org/2000/svg" xmlns:xlink="http://www.w3.org/1999/xlink" viewBox="0 0 4018.42 2119.14">
  <defs>
    <style>
      .cls-1 {
        fill: url(#linear-gradient);
      }

      .cls-1, .cls-2, .cls-3, .cls-4, .cls-5, .cls-6, .cls-7, .cls-8 {
        stroke-width: 0px;
      }

      .cls-2 {
        fill: #f3f3f3;
      }

      .cls-3, .cls-9 {
        fill: #ed1c24;
      }

      .cls-10, .cls-11 {
        letter-spacing: -.12em;
      }

      .cls-10, .cls-12 {
        fill: #fdba5a;
        font-size: 255px;
      }

      .cls-13 {
        font-size: 90px;
      }

      .cls-13, .cls-14, .cls-12, .cls-9 {
        font-family: ChulabhornLikitText-Bold, 'Chulabhorn Likit Text';
        font-weight: 700;
      }

      .cls-13, .cls-8 {
        fill: #223870;
      }

      .cls-15 {
        fill: #fff;
        font-size: 244px;
      }

      .cls-16 {
        letter-spacing: 0em;
      }

      .cls-4 {
        fill: #d19a42;
      }

      .cls-17 {
        letter-spacing: 0em;
      }

      .cls-5 {
        fill: url(#linear-gradient-2);
      }

      .cls-6 {
        fill: #fdbb5a;
      }

      .cls-7 {
        fill: #231f20;
      }

      .cls-18 {
        fill: none;
        stroke: #231f20;
        stroke-miterlimit: 10;
        stroke-width: 17px;
      }

      .cls-9 {
        font-size: 100px;
      }

      .cls-19 {
        letter-spacing: -.02em;
      }
    </style>
    <linearGradient id="linear-gradient" x1="1183.49" y1="691.11" x2="1180.8" y2="752.45" gradientUnits="userSpaceOnUse">
      <stop offset=".7" stop-color="#e62127"/>
      <stop offset=".74" stop-color="#a5161d"/>
      <stop offset=".79" stop-color="#620c13"/>
    </linearGradient>
    <linearGradient id="linear-gradient-2" x1="1066.32" y1="522.32" x2="1296.97" y2="522.32" gradientUnits="userSpaceOnUse">
      <stop offset=".17" stop-color="#ea3438"/>
      <stop offset=".19" stop-color="#e93034"/>
      <stop offset=".26" stop-color="#e6242a"/>
      <stop offset=".34" stop-color="#e62127"/>
      <stop offset=".76" stop-color="#c52127"/>
    </linearGradient>
  </defs>
  <g id="Layer_2" data-name="Layer 2">
    <rect class="cls-2" x="8.5" y="8.5" width="4001.42" height="2102.14" rx="103.62" ry="103.62"/>
  </g>
  <g id="Layer_3" data-name="Layer 3">
    <path class="cls-8" d="m1809.39,1124.31h159.32l376.85,984.19-282.63,2.14c-66.13-197.03-132.26-394.06-198.39-591.09-66.38-1.02-132.77-2.04-199.15-3.06l144-392.17Z"/>
    <path class="cls-8" d="m1922.75,768.91L1628.62,8.5H112.12C54.89,8.5,8.5,54.89,8.5,112.12v1404.36h1632.37l281.87-747.57Z"/>
    <polygon class="cls-4" points="2069.96 1356.75 2134.15 1522.61 2278.15 1344.91 2069.96 1356.75"/>
    <polygon class="cls-6" points="1901.3 1366.35 1408.02 8.5 1775.68 8.5 2278.15 1344.91 1901.3 1366.35"/>
    <polygon class="cls-6" points="9.92 1519.54 1037.3 1519.54 985.22 1684.99 9.92 1684.99 9.92 1519.54"/>
  </g>
  <g id="Layer_4" data-name="Layer 4">
    <text class="cls-12" transform="translate(36.45 715.09)"><tspan class="cls-11" x="0" y="0" xml:space="preserve">			</tspan><tspan x="108" y="0">มาแล้ว</tspan></text>
    <text class="cls-14" transform="translate(8.5 1087.6)"><tspan class="cls-10" x="0" y="0" xml:space="preserve">				</tspan><tspan class="cls-15" x="144" y="0">หมู่บ้าน Maps</tspan></text>
    <text class="cls-13" transform="translate(61.43 1633.52)"><tspan class="cls-19" x="0" y="0">เ</tspan><tspan x="30.06" y="0">ว็บนี้อยู่ในช่วงทดลอง</tspan><tspan class="cls-16" x="837.08" y="0">ใ</tspan><tspan x="870.02" y="0">ช้</tspan></text>
    <text class="cls-9" transform="translate(278.74 1949.34)"><tspan x="0" y="0">ระบบอาจจะไม่ เสถียร ใ</tspan><tspan class="cls-17" x="970.78" y="0">น</tspan><tspan x="1040.18" y="0">บางครั้ง</tspan></text>
  </g>
  <g id="Layer_5" data-name="Layer 5">
    <rect class="cls-18" x="8.5" y="8.5" width="4001.42" height="2102.14" rx="103.62" ry="103.62"/>
  </g>
  <g id="Layer_6" data-name="Layer 6">
    <g>
      <path class="cls-3" d="m2524.1,840.99c0-39.11,0-48.07-2.29-65.05,6.1.19,19.65.38,25.37.38s19.27-.19,25.37-.38c-2.29,16.98-2.29,25.95-2.29,65.05v104.36c0,20.03,2.1,23.47,8.78,23.47,5.34,0,9.92-.38,16.22-1.34l-4.2,23.08c-11.64,3.24-19.08,4.58-26.33,4.58-27.66,0-40.64-15.83-40.64-46.36v-107.79Z"/>
      <path class="cls-3" d="m2661.27,932.56c0,21.75,10.68,32.05,27.86,32.05s26.33-10.3,26.33-32.05v-91.57c0-39.11-.19-48.07-2.48-65.05,6.11.19,20.03.38,25.76.38s19.65-.19,25.76-.38c-2.29,16.98-2.29,25.95-2.29,65.05v91.57c0,42.35-24.42,64.29-73.07,64.29s-74.02-23.27-74.02-64.29v-32.81c0-43.69,34.72-63.72,34.72-86.42,0-5.91-2.86-10.11-11.26-10.11-6.87,0-11.64,3.43-15.07,7.44h-4.01c-.76-3.05-3.62-14.5-11.83-28.43,8.2-4.2,22.89-9.16,38.73-9.16,31.1,0,45.41,15.26,45.41,37.96,0,35.68-30.53,51.7-30.53,88.9v32.62Z"/>
      <path class="cls-3" d="m2730.91,687.22v25.37h13.93c5.34,0,22.89-.38,40.44-1.15-.19,4.39-.38,26.33,0,31.29-13.35-.76-31.1-.76-40.25-.76h-52.08s1.91-5.34,1.91-26.9c-9.16,0-16.41,0-29.76.76.38-4.96.19-24.8,0-29.19,17.55.76,20.6.57,25.94.57h39.87Z"/>
      <path class="cls-3" d="m2913.48,929.51c0,38.92,0,45.79,3.62,64.86-6.49-.19-21.18-.38-26.52-.38-5.72,0-20.6.19-27.47.38,3.82-19.08,3.82-28.05,3.82-64.86v-91.38c0-23.66-12.97-32.62-28.04-32.62-19.08,0-30.52,7.82-37.58,15.83h-5.91c-.76-6.87-4-16.6-13.73-33,13.16-7.82,36.25-15.26,56.85-15.26,49.22,0,74.98,20.6,74.98,65.63v90.81Z"/>
      <path class="cls-3" d="m2956.41,786.23c0-40.64,36.44-51.89,36.44-73.83,0-10.68-7.44-18.12-21.94-18.12-17.17,0-32.24,10.87-36.82,23.27h-6.87c-3.44-11.83-8.59-17.55-16.98-32.05,14.69-13.16,37.77-23.66,64.1-23.66,31.86,0,61.24,16.6,61.24,48.84s-33,41.4-33,82.03v152.62c0,20.03,2.1,23.47,8.78,23.47,5.34,0,9.92-.38,16.22-1.34l-4.2,23.08c-11.64,3.24-19.08,4.58-26.33,4.58-27.66,0-40.64-15.83-40.64-46.36v-162.54Z"/>
      <path class="cls-3" d="m3206.9,928.55c0,47.88-29,68.3-77.46,68.3s-77.84-21.75-77.84-68.3v-28.81c0-43.69,34.72-63.72,34.72-86.42,0-5.91-2.86-10.11-11.26-10.11-6.49,0-12.02,4.01-15.07,7.44h-4.01c-.76-3.05-3.62-14.5-11.83-28.43,8.2-4.2,22.89-9.16,38.73-9.16,31.1,0,45.4,15.26,45.4,37.96,0,35.68-30.52,51.7-30.52,88.9v28.62c0,26.9,9.92,35.87,31.67,35.87s31.29-8.97,31.29-35.87v-54.56c0-19.65-5.72-26.33-17.74-26.33-2.86,0-5.34.19-7.63.38.95-9.16.95-14.31.95-17.36v-11.45c22.89-.38,28.81-10.68,28.81-50.18,8.78.57,17.74.57,21.56.57,7.06,0,17.74,0,26.14-1.34,0,35.68-10.68,54.56-33.77,63.15,16.41,6.1,27.86,17.36,27.86,46.36v50.75Z"/>
      <path class="cls-3" d="m3179.24,687.22v25.37h13.93c5.34,0,22.89-.38,40.44-1.15-.19,4.39-.38,26.33,0,31.29-13.35-.76-31.1-.76-40.25-.76h-52.08s1.91-5.34,1.91-26.9c-9.16,0-16.41,0-29.76.76.38-4.96.19-24.8,0-29.19,17.55.76,20.6.57,25.94.57h39.87Z"/>
      <path class="cls-3" d="m3397.49,775.93c-1.53,33-1.91,42.73-1.91,75.55v87.38c0,29.95-19.08,55.32-51.13,55.32h-50.94c-1.91-9.73-4.77-18.7-7.06-24.8-18.7-52.08-29.38-85.47-54.37-144.42,5.34.38,21.75.76,27.09.76s17.74-.19,23.85-.57c14.12,42.54,21.56,70.21,47.31,138.5,10.68-.19,17.55-6.49,17.55-23.47v-88.71c0-31.1-.95-41.97-.95-41.97-7.82.38-19.84,1.34-29.57,3.24.19-3.24.76-16.03.76-19.65,0-3.05,0-7.44-.95-17.17h80.32Z"/>
      <path class="cls-3" d="m3546.49,929.51c0,38.92,0,45.79,3.62,64.86-6.49-.19-21.18-.38-26.52-.38-5.72,0-20.6.19-27.47.38,3.82-19.08,3.82-28.05,3.82-64.86v-91.38c0-23.66-12.97-32.62-28.04-32.62-19.08,0-30.52,7.82-37.58,15.83h-5.91c-.76-6.87-4-16.6-13.73-33,13.16-7.82,36.25-15.26,56.85-15.26,49.22,0,74.98,20.6,74.98,65.63v90.81Z"/>
      <path class="cls-3" d="m3587.51,840.99c0-39.11,0-48.07-2.29-65.05,6.1.19,20.03.38,25.75.38s19.46-.19,25.56-.38c-2.29,16.98-2.48,25.95-2.48,65.05v84.51c0,24.99,8.2,38.16,27.66,38.16,23.47,0,41.59-17.74,43.69-45.79v-76.88c0-39.11,0-48.07-2.29-65.05,6.11.19,20.03.38,25.76.38s19.27-.19,25.37-.38c-2.29,16.98-2.29,25.95-2.29,65.05v88.52c0,36.82,0,47.69,2.29,64.86-6.68-.19-19.84-.38-25.56-.38s-18.7.19-25.37.38c.76-8.78,1.34-15.07,1.72-23.47-10.68,15.26-26.71,25.94-51.7,25.94-46.36,0-65.82-27.85-65.82-73.07v-82.8Z"/>
      <path class="cls-3" d="m2863.5,1302.68c0-23.66-11.06-39.11-37.97-39.11-19.27,0-33.38,7.25-42.73,14.5v.76c4.2,4.39,9.73,13.35,9.73,25.75v82.8c0,38.92,0,47.69,2.29,64.86-6.68-.19-20.22-.38-25.76-.38s-18.88.19-25.37.38c2.29-17.17,2.29-28.05,2.29-64.86v-87.19c0-16.22-6.1-23.85-12.02-27.66v-3.05c19.84-21.18,53.8-39.11,91.57-39.11,51.51,0,84.51,27.66,84.51,72.3v84.71c0,38.92,0,47.69,2.29,64.86-6.68-.19-19.65-.38-25.18-.38s-19.46.19-25.95.38c2.29-17.17,2.29-28.05,2.29-64.86v-84.71Z"/>
      <path class="cls-3" d="m3075.26,1304.4c0-27.66-14.5-40.44-39.3-40.44s-39.68,12.78-39.68,40.44v108.17c13.35-8.2,24.42-24.23,24.42-49.03,0-12.02-3.24-17.36-8.2-21.56l1.14-3.43c13.55,0,22.13-5.53,38.16-12.4,6.49,6.49,9.73,15.45,9.73,25.95,0,39.49-24.8,75.17-81.65,100.16-3.62-.19-9.16-.38-12.78-.38-4.01,0-15.64.57-19.27.76,2.29-16.98,2.29-28.05,2.29-65.06v-81.27c0-49.22,32.24-75.55,85.85-75.55s85.47,26.33,85.47,75.93v80.89c0,37.58.57,50.56,2.29,64.67-6.49-.19-19.65-.38-25.37-.38s-19.08.19-25.75.38c1.72-14.12,2.67-27.09,2.67-64.67v-83.18Z"/>
      <path class="cls-3" d="m3326.33,1387.39c0,39.11,0,48.07,2.29,65.05-6.1-.19-19.84-.57-25.56-.57s-19.65.38-25.75.57c2.29-16.98,2.48-25.95,2.48-65.05v-88.33c0-23.85-8.2-34.34-26.52-34.34-23.47,0-41.59,17.74-43.69,45.79v76.88c0,39.11,0,48.07,2.29,65.05-6.1-.19-19.65-.57-25.37-.57s-19.65.38-25.75.57c2.29-16.98,2.29-25.95,2.29-65.05v-88.52c0-36.82,0-47.69-2.29-64.86,6.68.19,20.22.38,25.94.38s18.32-.19,24.99-.38c-.95,8.2-1.53,14.12-1.72,21.56,12.59-14.88,30.33-24.04,52.85-24.04,46.36,0,63.53,25.94,63.53,71.16v84.71Z"/>
      <path class="cls-3" d="m3286.46,1168.38c-.19-7.82-.38-11.64-.38-23.27,5.72.95,28.42.76,34.15,0v54.56s-13.16-.95-20.22-.95c-13.93,0-39.3-.38-55.52-.38-13.16,0-38.92.76-51.89.76-10.3,0-17.17.38-22.51,1.91l-.57-.76c3.62-9.16,9.73-23.85,11.83-30.33,12.59-1.53,47.12-2.1,63.15-2.1,13.54,0,28.24.19,41.97.57Z"/>
      <path class="cls-3" d="m3319.27,1072.42l-1.15,23.28c-.76,12.4-2.48,33.19-2.48,33.19-3.82-.57-20.6-.57-24.42,0,0,0-2.1-20.79-2.67-33.19-.76-13.16-.38-10.11-.95-23.28,12.97.38,18.12.38,31.67,0Z"/>
      <path class="cls-3" d="m3366.01,1298.87c0-39.11,0-48.07-2.29-65.05,6.1.19,20.03.38,25.75.38s19.46-.19,25.56-.38c-2.29,16.98-2.48,25.95-2.48,65.05v84.51c0,24.99,8.2,38.16,27.66,38.16,23.47,0,41.59-17.74,43.69-45.79v-76.88c0-39.11,0-48.07-2.29-65.05,6.11.19,20.03.38,25.76.38s19.27-.19,25.37-.38c-2.29,16.98-2.29,25.95-2.29,65.05v88.52c0,36.82,0,47.69,2.29,64.86-6.68-.19-19.84-.38-25.56-.38s-18.7.19-25.37.38c.76-8.78,1.34-15.07,1.72-23.47-10.68,15.26-26.71,25.94-51.7,25.94-46.36,0-65.82-27.85-65.82-73.07v-82.8Z"/>
      <path class="cls-3" d="m3490.59,1168.38c-.19-7.82-.38-11.64-.38-23.27,5.72.95,28.42.76,34.15,0v54.56s-13.16-.95-20.22-.95c-13.93,0-39.3-.38-55.52-.38-13.16,0-38.92.76-51.89.76-10.3,0-17.17.38-22.51,1.91l-.57-.76c3.62-9.16,9.73-23.85,11.83-30.33,12.59-1.53,47.12-2.1,63.15-2.1,13.54,0,28.24.19,41.97.57Z"/>
      <path class="cls-3" d="m3523.41,1072.42l-1.15,23.28c-.76,12.4-2.48,33.19-2.48,33.19-3.82-.57-20.6-.57-24.42,0,0,0-2.1-20.79-2.67-33.19-.76-13.16-.38-10.11-.95-23.28,12.97.38,18.12.38,31.67,0Z"/>
    </g>
    <g>
      <g>
        <ellipse class="cls-1" cx="1182.12" cy="722.38" rx="152.17" ry="34.95"/>
        <path class="cls-7" d="m1182.12,759.83c-40.83,0-79.24-3.66-108.16-10.3-21.22-4.87-46.51-13.54-46.51-27.15s25.29-22.28,46.51-27.15c28.92-6.64,67.33-10.3,108.16-10.3s79.24,3.66,108.16,10.3c21.22,4.87,46.51,13.54,46.51,27.15s-25.29,22.28-46.51,27.15c-28.92,6.64-67.33,10.3-108.16,10.3Zm0-69.91c-88.2,0-149.67,17.1-149.67,32.45s61.47,32.45,149.67,32.45,149.67-17.1,149.67-32.45-61.47-32.45-149.67-32.45Z"/>
      </g>
      <g>
        <path class="cls-5" d="m1318.59,398.29c-2.49-6.95-20.49-54.79-70.9-80.28-48.56-24.56-118.07-23.77-165.79,20.77-48.45,45.21-59.21,121.32-23.83,182,16.46,31.63,30.13,57.31,39.83,75.36,4.69,8.74,32.26,60.02,47.32,90.55,5.61,11.37,8.41,17.06,8.6,17.49,5.12,11.93,7.3,20.38,14.89,30.51,3.39,4.52,6.53,7.6,10.81,8.04,4.64.47,8.5-2.38,9.06-2.81,2.05-1.56,2.95-3.19,5.23-7.28,1.76-3.16,4.06-6.68,6-10.72,5.43-11.32,11.62-22.28,16.85-33.7,8.29-18.08,15.61-29.17,38.17-71.49,21.11-39.6,16.34-32.96,43.34-84.55,19.98-38.18,21.79-40.27,24.4-50.08,10.7-40.16-.87-75.11-3.99-83.8Zm-140.03,120.14c-40.61,0-73.53-32.92-73.53-73.53s32.92-73.53,73.53-73.53,73.53,32.92,73.53,73.53-32.92,73.53-73.53,73.53Z"/>
        <path class="cls-7" d="m1180.57,744.79c-.41,0-.83-.02-1.26-.06-5.31-.54-9.01-4.57-12.21-8.83-5.87-7.83-8.6-14.7-11.75-22.65-1.04-2.62-2.11-5.33-3.38-8.26-.22-.49-3.36-6.85-8.56-17.4-9.54-19.35-26.25-51.32-47.04-90.03l-.25-.46c-13.17-24.52-26.57-49.88-39.84-75.38-35.37-60.67-25.2-138.25,24.24-184.39,22.66-21.14,51.62-33.88,83.76-36.82,29.04-2.66,58.97,2.93,84.29,15.73,49.63,25.1,68.59,72.21,71.88,81.39,4.6,12.83,14.21,46.81,4.04,84.99-2.11,7.94-3.7,10.94-14.05,30.53-2.8,5.29-6.24,11.81-10.51,19.97-13.39,25.59-18.9,36.71-23.75,46.52-4.8,9.7-8.95,18.08-19.6,38.05-9.28,17.41-15.91,29.41-21.24,39.04-7.5,13.57-12.03,21.76-16.88,32.34-2.94,6.41-6.22,12.76-9.39,18.9-2.5,4.84-5.09,9.85-7.48,14.83-1.35,2.81-2.88,5.4-4.23,7.69-.64,1.09-1.26,2.14-1.83,3.15-2.35,4.2-3.4,6.09-5.77,7.89-1.07.81-4.68,3.27-9.22,3.27Zm-2.3-440.81c-32.7,0-67.17,10.29-95.01,36.26-48.08,44.87-57.95,120.38-23.47,179.53,13.31,25.57,26.7,50.92,39.86,75.42l.25.46c20.81,38.75,37.54,70.76,47.1,90.15,6.41,13,8.45,17.13,8.64,17.59,1.28,2.99,2.37,5.72,3.42,8.37,3.18,8.01,5.69,14.33,11.23,21.73,3.07,4.09,5.84,6.89,9.41,7.25,3.75.38,7.03-1.94,7.65-2.41,1.7-1.3,2.51-2.74,4.66-6.59.61-1.1,1.25-2.18,1.91-3.3,1.37-2.32,2.79-4.73,4.07-7.38,2.42-5.04,5.02-10.07,7.53-14.94,3.15-6.1,6.41-12.41,9.31-18.73,4.91-10.71,9.47-18.95,17.01-32.61,5.32-9.63,11.94-21.6,21.21-38.99,10.62-19.92,14.76-28.28,19.54-37.95,4.87-9.83,10.38-20.97,23.79-46.6,4.28-8.17,7.72-14.69,10.52-19.99,10.16-19.23,11.72-22.19,13.72-29.69,9.88-37.1.53-70.13-3.94-82.61-3.21-8.94-21.64-54.76-69.92-79.18-19.23-9.73-43.35-15.82-68.51-15.82Zm.29,216.46c-41.65,0-75.53-33.88-75.53-75.53s33.88-75.53,75.53-75.53,75.53,33.88,75.53,75.53-33.88,75.53-75.53,75.53Zm0-147.06c-39.44,0-71.53,32.09-71.53,71.53s32.09,71.53,71.53,71.53,71.53-32.09,71.53-71.53-32.09-71.53-71.53-71.53Z"/>
      </g>
    </g>
  </g>
</svg>