<?xml version="1.0" encoding="UTF-8"?><svg id="a" xmlns="http://www.w3.org/2000/svg" viewBox="0 0 395.14 139.13"><defs><style>.b{fill:#27aae1;}.c{fill:#009444;opacity:.57;}.d{fill:#231f20;}.e{fill:#fff;font-family:Itim-Regular, Itim;font-size:40px;}</style></defs><rect class="b" width="395.14" height="139.13" rx="13.71" ry="13.71"/><text class="e" transform="translate(133.49 59.04)"><tspan x="0" y="0">ค้นหานิติบุคคล</tspan><tspan x="0" y="48">ข้ามสำนักงาน</tspan></text><g><circle class="c" cx="51.99" cy="53.1" r="35.3"/><path class="d" d="M46.32,12.96C24.04,16.1,8.52,36.72,11.67,59c3.15,22.28,23.76,37.8,46.05,34.65s37.8-23.76,34.65-46.05S68.61,9.81,46.32,12.96Zm10.63,75.3c-19.3,2.73-37.16-10.71-39.89-30.02-2.73-19.3,10.71-37.16,30.02-39.89,19.3-2.73,37.16,10.71,39.89,30.02s-10.71,37.16-30.02,39.89Z"/><path class="d" d="M74.43,83.63l44.18,41.77c1.73,1.63,4.47,1.55,6.1-.17h0c1.63-1.73,1.55-4.47-.17-6.1l-44.18-41.77-5.93,6.27Z"/></g></svg>